<svg width="60" height="60" viewBox="0 0 60 60" fill="none" xmlns="http://www.w3.org/2000/svg">
<rect width="60" height="60" rx="10" fill="url(#paint0_linear_2412_2931)"/>
<rect x="0.5" y="0.5" width="59" height="59" rx="9.5" stroke="#0E0E0E" stroke-opacity="0.1"/>
<path d="M34.2336 28.5195L21.2844 15.5117L37.7492 25.0039L34.2336 28.5195ZM17.9445 14.75L32.9445 29.75L17.9445 44.75C17.1828 44.3984 16.6555 43.6367 16.6555 42.6992V16.8594C16.6555 15.9219 17.1828 15.1602 17.9445 14.75ZM42.8469 27.9922C43.9602 28.8125 43.9602 30.7461 42.9055 31.5664L39.3898 33.5586L35.5227 29.75L39.3898 26L42.8469 27.9922ZM21.2844 43.9883L34.2336 31.0391L37.7492 34.5547L21.2844 43.9883Z" fill="#0E0E0E"/>
<defs>
<linearGradient id="paint0_linear_2412_2931" x1="30" y1="60" x2="30" y2="0" gradientUnits="userSpaceOnUse">
<stop stop-color="#B9FB6A"/>
<stop offset="0.5" stop-color="white"/>
<stop offset="1" stop-color="#B9FB6A"/>
</linearGradient>
</defs>
</svg>
