<svg width="60" height="60" viewBox="0 0 60 60" fill="none" xmlns="http://www.w3.org/2000/svg">
<rect width="60" height="60" rx="10" fill="url(#paint0_linear_2412_2928)"/>
<rect x="0.5" y="0.5" width="59" height="59" rx="9.5" stroke="#0E0E0E" stroke-opacity="0.1"/>
<path d="M39.5375 30.7148C39.5375 30.8633 39.3148 35.2422 44.1391 37.543C43.2484 40.2891 40.1313 46.375 36.4945 46.375C34.4164 46.375 33.2289 45.0391 30.8539 45.0391C28.4047 45.0391 27.0688 46.375 25.2133 46.375C21.6508 46.5234 18.2367 39.8438 17.2719 37.0977C16.5297 35.0195 16.2328 33.0156 16.2328 31.0859C16.2328 24.4805 20.6117 21.2891 24.768 21.2148C26.7719 21.2148 29.2953 22.625 30.4086 22.625C31.4477 22.625 34.3422 20.918 37.0141 21.1406C39.7602 21.3633 41.8383 22.4023 43.2484 24.4062C40.7992 25.9648 39.5375 27.9688 39.5375 30.7148ZM35.3813 18.543C33.8969 20.25 32.1156 21.2148 30.1859 21.0664C30.0375 19.0625 30.7797 17.207 32.1156 15.7227C33.3031 14.3867 35.3813 13.2734 37.1625 13.125C37.1625 13.9414 37.3852 16.168 35.3813 18.543Z" fill="#0E0E0E"/>
<defs>
<linearGradient id="paint0_linear_2412_2928" x1="30" y1="60" x2="30" y2="0" gradientUnits="userSpaceOnUse">
<stop stop-color="#B9FB6A"/>
<stop offset="0.5" stop-color="white"/>
<stop offset="1" stop-color="#B9FB6A"/>
</linearGradient>
</defs>
</svg>
