<svg width="60" height="60" viewBox="0 0 60 60" fill="none" xmlns="http://www.w3.org/2000/svg">
<rect width="60" height="60" rx="10" fill="url(#paint0_linear_2417_11545)"/>
<rect x="0.5" y="0.5" width="59" height="59" rx="9.5" stroke="#0E0E0E" stroke-opacity="0.1"/>
<path d="M24.1945 41.293C22.339 41.293 20.7521 40.8535 19.4337 39.9746C18.1251 39.0859 17.1193 37.8115 16.4161 36.1514C15.7228 34.4814 15.3761 32.4648 15.3761 30.1016C15.3761 27.748 15.7277 25.7363 16.4308 24.0664C17.1339 22.3867 18.1398 21.1025 19.4484 20.2139C20.7667 19.3252 22.3488 18.8809 24.1945 18.8809C26.0499 18.8809 27.632 19.3252 28.9406 20.2139C30.2589 21.1025 31.2648 22.3818 31.9581 24.0518C32.6613 25.7217 33.0128 27.7383 33.0128 30.1016C33.0128 32.4648 32.6661 34.4814 31.9728 36.1514C31.2794 37.8115 30.2736 39.0859 28.9552 39.9746C27.6466 40.8535 26.0597 41.293 24.1945 41.293ZM24.1945 37.4844C25.0831 37.4844 25.8302 37.2012 26.4357 36.6348C27.0509 36.0586 27.5148 35.2188 27.8273 34.1152C28.1495 33.0117 28.3107 31.6738 28.3107 30.1016C28.3107 28.5195 28.1495 27.1768 27.8273 26.0732C27.5148 24.9697 27.0509 24.1299 26.4357 23.5537C25.8302 22.9678 25.0831 22.6748 24.1945 22.6748C22.8761 22.6748 21.8605 23.3242 21.1476 24.623C20.4347 25.9121 20.0783 27.7383 20.0783 30.1016C20.0783 31.6738 20.2345 33.0117 20.547 34.1152C20.8693 35.2188 21.338 36.0586 21.9533 36.6348C22.5685 37.2012 23.3156 37.4844 24.1945 37.4844ZM44.5997 19.1738V41H40.0001V23.5537H39.8683L34.8878 26.7031V22.6016L40.2784 19.1738H44.5997Z" fill="#0E0E0E"/>
<defs>
<linearGradient id="paint0_linear_2417_11545" x1="30" y1="60" x2="30" y2="0" gradientUnits="userSpaceOnUse">
<stop stop-color="#B9FB6A"/>
<stop offset="0.5" stop-color="white"/>
<stop offset="1" stop-color="#B9FB6A"/>
</linearGradient>
</defs>
</svg>
