<svg width="60" height="60" viewBox="0 0 60 60" fill="none" xmlns="http://www.w3.org/2000/svg">
<rect width="60" height="60" rx="10" fill="url(#paint0_linear_2417_11552)"/>
<rect x="0.5" y="0.5" width="59" height="59" rx="9.5" stroke="#0E0E0E" stroke-opacity="0.1"/>
<path d="M21.1825 41.293C19.327 41.293 17.7401 40.8535 16.4218 39.9746C15.1132 39.0859 14.1073 37.8115 13.4042 36.1514C12.7108 34.4814 12.3641 32.4648 12.3641 30.1016C12.3641 27.748 12.7157 25.7363 13.4188 24.0664C14.122 22.3867 15.1278 21.1025 16.4364 20.2139C17.7548 19.3252 19.3368 18.8809 21.1825 18.8809C23.038 18.8809 24.62 19.3252 25.9286 20.2139C27.247 21.1025 28.2528 22.3818 28.9462 24.0518C29.6493 25.7217 30.0009 27.7383 30.0009 30.1016C30.0009 32.4648 29.6542 34.4814 28.9608 36.1514C28.2675 37.8115 27.2616 39.0859 25.9432 39.9746C24.6347 40.8535 23.0477 41.293 21.1825 41.293ZM21.1825 37.4844C22.0712 37.4844 22.8182 37.2012 23.4237 36.6348C24.039 36.0586 24.5028 35.2188 24.8153 34.1152C25.1376 33.0117 25.2987 31.6738 25.2987 30.1016C25.2987 28.5195 25.1376 27.1768 24.8153 26.0732C24.5028 24.9697 24.039 24.1299 23.4237 23.5537C22.8182 22.9678 22.0712 22.6748 21.1825 22.6748C19.8641 22.6748 18.8485 23.3242 18.1356 24.623C17.4227 25.9121 17.0663 27.7383 17.0663 30.1016C17.0663 31.6738 17.2225 33.0117 17.535 34.1152C17.8573 35.2188 18.3261 36.0586 18.9413 36.6348C19.5565 37.2012 20.3036 37.4844 21.1825 37.4844ZM32.286 41V37.6895L40.0497 30.4824C40.7138 29.8477 41.2704 29.2764 41.7196 28.7686C42.1688 28.251 42.5106 27.748 42.745 27.2598C42.9794 26.7617 43.0966 26.2246 43.0966 25.6484C43.0966 25.0039 42.9501 24.4521 42.6571 23.9932C42.3641 23.5342 41.9686 23.1777 41.4706 22.9238C40.9725 22.6699 40.4013 22.543 39.7567 22.543C39.0927 22.543 38.5116 22.6797 38.0136 22.9531C37.5155 23.2168 37.1298 23.6025 36.8563 24.1104C36.5927 24.6084 36.4608 25.209 36.4608 25.9121H32.0663C32.0663 24.4766 32.3886 23.2363 33.0331 22.1914C33.6874 21.1367 34.5956 20.3213 35.7577 19.7451C36.9296 19.1689 38.2772 18.8809 39.8007 18.8809C41.3534 18.8809 42.7108 19.1592 43.8729 19.7158C45.035 20.2627 45.9384 21.0244 46.5829 22.001C47.2274 22.9678 47.5497 24.0859 47.5497 25.3555C47.5497 26.1758 47.3886 26.9863 47.0663 27.7871C46.744 28.5781 46.1727 29.4668 45.3524 30.4531C44.5321 31.4297 43.37 32.5967 41.8661 33.9541L38.6727 37.0742V37.2354H47.8427V41H32.286Z" fill="#0E0E0E"/>
<defs>
<linearGradient id="paint0_linear_2417_11552" x1="30" y1="60" x2="30" y2="0" gradientUnits="userSpaceOnUse">
<stop stop-color="#B9FB6A"/>
<stop offset="0.5" stop-color="white"/>
<stop offset="1" stop-color="#B9FB6A"/>
</linearGradient>
</defs>
</svg>
