<svg width="60" height="60" viewBox="0 0 60 60" fill="none" xmlns="http://www.w3.org/2000/svg">
<rect width="60" height="60" rx="10" fill="url(#paint0_linear_2417_11559)"/>
<rect x="0.5" y="0.5" width="59" height="59" rx="9.5" stroke="#0E0E0E" stroke-opacity="0.1"/>
<path d="M20.7588 41.293C18.9033 41.293 17.3164 40.8535 15.998 39.9746C14.6894 39.0859 13.6836 37.8115 12.9805 36.1514C12.2871 34.4814 11.9404 32.4648 11.9404 30.1016C11.9404 27.748 12.292 25.7363 12.9951 24.0664C13.6982 22.3867 14.7041 21.1025 16.0127 20.2139C17.331 19.3252 18.9131 18.8809 20.7588 18.8809C22.6142 18.8809 24.1963 19.3252 25.5049 20.2139C26.8232 21.1025 27.8291 22.3818 28.5225 24.0518C29.2256 25.7217 29.5771 27.7383 29.5771 30.1016C29.5771 32.4648 29.2305 34.4814 28.5371 36.1514C27.8437 37.8115 26.8379 39.0859 25.5195 39.9746C24.2109 40.8535 22.624 41.293 20.7588 41.293ZM20.7588 37.4844C21.6475 37.4844 22.3945 37.2012 23 36.6348C23.6152 36.0586 24.0791 35.2188 24.3916 34.1152C24.7139 33.0117 24.875 31.6738 24.875 30.1016C24.875 28.5195 24.7139 27.1768 24.3916 26.0732C24.0791 24.9697 23.6152 24.1299 23 23.5537C22.3945 22.9678 21.6475 22.6748 20.7588 22.6748C19.4404 22.6748 18.4248 23.3242 17.7119 24.623C16.999 25.9121 16.6426 27.7383 16.6426 30.1016C16.6426 31.6738 16.7988 33.0117 17.1113 34.1152C17.4336 35.2188 17.9023 36.0586 18.5176 36.6348C19.1328 37.2012 19.8799 37.4844 20.7588 37.4844ZM39.9336 41.293C38.332 41.293 36.9111 41.0195 35.6709 40.4727C34.4404 39.9258 33.4687 39.1689 32.7558 38.2021C32.043 37.2256 31.6767 36.1025 31.6572 34.833H36.2861C36.3154 35.3604 36.4912 35.8242 36.8135 36.2246C37.1357 36.625 37.5654 36.9375 38.1025 37.1621C38.6494 37.377 39.2598 37.4844 39.9336 37.4844C40.6367 37.4844 41.2568 37.3623 41.7939 37.1182C42.3408 36.874 42.7656 36.5322 43.0683 36.0928C43.3711 35.6533 43.5225 35.1455 43.5225 34.5693C43.5225 33.9736 43.3613 33.4561 43.0391 33.0166C42.7168 32.5674 42.2578 32.2158 41.6621 31.9619C41.0664 31.708 40.3535 31.5811 39.5234 31.5811H37.4873V28.1826H39.5234C40.2266 28.1826 40.8418 28.0605 41.3691 27.8164C41.8965 27.5723 42.3115 27.2354 42.6142 26.8057C42.917 26.376 43.0683 25.8779 43.0683 25.3115C43.0683 24.7549 42.9365 24.2715 42.6728 23.8613C42.4189 23.4512 42.0625 23.1289 41.6035 22.8945C41.1445 22.6602 40.6025 22.543 39.9775 22.543C39.3428 22.543 38.7666 22.6553 38.249 22.8799C37.7314 23.1045 37.3164 23.4219 37.0039 23.832C36.6914 24.2324 36.5303 24.7109 36.5205 25.2676H32.082C32.1016 24.0078 32.458 22.8994 33.1514 21.9424C33.8447 20.9854 34.7822 20.2383 35.9639 19.7012C37.1553 19.1543 38.498 18.8809 39.9922 18.8809C41.5058 18.8809 42.8242 19.1543 43.9473 19.7012C45.0801 20.248 45.959 20.9854 46.584 21.9131C47.209 22.8408 47.5215 23.8809 47.5215 25.0332C47.5215 26.2539 47.1406 27.2744 46.3789 28.0947C45.6172 28.9053 44.626 29.4229 43.4053 29.6475V29.8086C45.0068 30.0137 46.2226 30.5703 47.0527 31.4785C47.8926 32.3867 48.3125 33.5195 48.3125 34.877C48.3125 36.1172 47.9512 37.2207 47.2285 38.1875C46.5156 39.1543 45.5293 39.916 44.2695 40.4727C43.0098 41.0195 41.5644 41.293 39.9336 41.293Z" fill="#0E0E0E"/>
<defs>
<linearGradient id="paint0_linear_2417_11559" x1="30" y1="60" x2="30" y2="0" gradientUnits="userSpaceOnUse">
<stop stop-color="#B9FB6A"/>
<stop offset="0.5" stop-color="white"/>
<stop offset="1" stop-color="#B9FB6A"/>
</linearGradient>
</defs>
</svg>
