<svg width="60" height="60" viewBox="0 0 60 60" fill="none" xmlns="http://www.w3.org/2000/svg">
<rect width="60" height="60" rx="10" fill="url(#paint0_linear_2417_11565)"/>
<rect x="0.5" y="0.5" width="59" height="59" rx="9.5" stroke="#0E0E0E" stroke-opacity="0.1"/>
<path d="M20.4673 41.293C18.6118 41.293 17.0249 40.8535 15.7065 39.9746C14.3979 39.0859 13.3921 37.8115 12.6889 36.1514C11.9956 34.4814 11.6489 32.4648 11.6489 30.1016C11.6489 27.748 12.0005 25.7363 12.7036 24.0664C13.4067 22.3867 14.4126 21.1025 15.7212 20.2139C17.0395 19.3252 18.6216 18.8809 20.4673 18.8809C22.3227 18.8809 23.9048 19.3252 25.2134 20.2139C26.5317 21.1025 27.5376 22.3818 28.2309 24.0518C28.9341 25.7217 29.2856 27.7383 29.2856 30.1016C29.2856 32.4648 28.9389 34.4814 28.2456 36.1514C27.5522 37.8115 26.5464 39.0859 25.228 39.9746C23.9194 40.8535 22.3325 41.293 20.4673 41.293ZM20.4673 37.4844C21.3559 37.4844 22.103 37.2012 22.7085 36.6348C23.3237 36.0586 23.7876 35.2188 24.1001 34.1152C24.4223 33.0117 24.5835 31.6738 24.5835 30.1016C24.5835 28.5195 24.4223 27.1768 24.1001 26.0732C23.7876 24.9697 23.3237 24.1299 22.7085 23.5537C22.103 22.9678 21.3559 22.6748 20.4673 22.6748C19.1489 22.6748 18.1333 23.3242 17.4204 24.623C16.7075 25.9121 16.351 27.7383 16.351 30.1016C16.351 31.6738 16.5073 33.0117 16.8198 34.1152C17.1421 35.2188 17.6108 36.0586 18.226 36.6348C18.8413 37.2012 19.5884 37.4844 20.4673 37.4844ZM31.2485 37.1621V33.5439L40.3452 19.1738H43.48V24.2129H41.6196L35.8774 33.2949V33.4707H48.8413V37.1621H31.2485ZM41.7075 41V36.0635L41.7954 34.4375V19.1738H46.1313V41H41.7075Z" fill="#0E0E0E"/>
<defs>
<linearGradient id="paint0_linear_2417_11565" x1="30" y1="60" x2="30" y2="0" gradientUnits="userSpaceOnUse">
<stop stop-color="#B9FB6A"/>
<stop offset="0.5" stop-color="white"/>
<stop offset="1" stop-color="#B9FB6A"/>
</linearGradient>
</defs>
</svg>
