<svg width="335" height="161" viewBox="0 0 335 161" fill="none" xmlns="http://www.w3.org/2000/svg">
<path d="M325 10V130.41H40C34.4772 130.41 30.0001 125.933 30 120.41V10H325Z" fill="#F9FAFB"/>
<path d="M325 10V130.41H40C34.4772 130.41 30.0001 125.933 30 120.41V10H325Z" stroke="#F9FAFB" stroke-width="20"/>
<mask id="mask0_2412_3044" style="mask-type:alpha" maskUnits="userSpaceOnUse" x="0" y="0" width="20" height="20">
<g clip-path="url(#clip0_2412_3044)">
<g clip-path="url(#clip1_2412_3044)">
<path d="M-80 0.29489C-60.575 0.102187 -45.2944 0.0312865 -29.9941 0.0067885L20.001 49.998V30.5098C20.0188 53.1689 20.0309 72.3054 19.6963 100H-80V0.29489ZM20.001 20.0029V30.5098C19.9982 26.9545 19.9959 23.3125 19.9941 19.5371C19.9977 19.692 20.001 19.8472 20.001 20.0029ZM19.9932 19.4863C19.7191 8.67939 10.8739 0.00288988 0.000976562 0.00288988H-25.8525C-11.9315 -0.0122087 2.31487 0.00408769 20 -9.2925e-06C19.9912 6.97219 19.9903 13.4026 19.9932 19.4863ZM-25.8525 0.00288988C-27.2353 0.00439287 -28.6148 0.00459123 -29.9941 0.0067885L-29.9971 0.00288988H-25.8525Z" fill="black"/>
</g>
</g>
</mask>
<g mask="url(#mask0_2412_3044)">
<path d="M0 0H20V20C8.95431 20 0 11.0457 0 0Z" fill="#F9FAFB"/>
</g>
<rect x="40" y="20" width="275" height="100.41" rx="20" fill="#B9FB6A"/>
<path d="M257.821 68.7717C257.821 68.592 257.75 68.4194 257.623 68.2922C257.496 68.1649 257.323 68.093 257.143 68.093H254.286C253.727 68.093 253.191 68.315 252.796 68.7102C252.401 69.1053 252.179 69.6415 252.179 70.2004V74.4855C252.179 75.0444 252.401 75.5806 252.796 75.9758C253.191 76.3709 253.727 76.593 254.286 76.593H257.143C257.323 76.593 257.496 76.521 257.623 76.3937L257.708 76.2912C257.782 76.1805 257.821 76.0493 257.821 75.9143V68.7717ZM259.321 75.9143C259.321 76.4921 259.092 77.0467 258.684 77.4553L258.683 77.4543C258.274 77.8629 257.72 78.093 257.143 78.093H254.286C253.329 78.093 252.412 77.7127 251.735 77.0363C251.059 76.3599 250.679 75.4423 250.679 74.4855V70.2004C250.679 69.2437 251.059 68.3261 251.735 67.6496C252.412 66.9732 253.329 66.593 254.286 66.593H257.143C257.72 66.593 258.275 66.8222 258.684 67.2307C259.092 67.6392 259.321 68.194 259.321 68.7717V75.9143Z" fill="#0E0E0E"/>
<path d="M280.679 68.7717C280.679 68.194 280.908 67.6392 281.316 67.2307C281.725 66.8221 282.28 66.593 282.857 66.593H285.715C286.671 66.5931 287.588 66.9733 288.265 67.6496C288.941 68.3261 289.321 69.2437 289.321 70.2004V74.4855C289.321 75.4422 288.941 76.3598 288.265 77.0363C287.588 77.7125 286.671 78.0929 285.715 78.093H282.857C282.28 78.093 281.726 77.863 281.317 77.4543L281.316 77.4553C280.908 77.0467 280.679 76.4921 280.679 75.9143V68.7717ZM282.179 75.9143C282.179 76.094 282.25 76.2665 282.377 76.3937C282.504 76.521 282.677 76.593 282.857 76.593H285.715C286.273 76.5929 286.809 76.3708 287.204 75.9758C287.599 75.5807 287.821 75.0444 287.821 74.4855V70.2004C287.821 69.6415 287.599 69.1053 287.204 68.7102C286.809 68.3152 286.274 68.0931 285.715 68.093H282.857C282.677 68.093 282.504 68.164 282.377 68.2912C282.25 68.4184 282.179 68.5918 282.179 68.7717V75.9143Z" fill="#0E0E0E"/>
<path d="M282.107 79.4855V77.343C282.107 76.9289 282.443 76.5932 282.857 76.593C283.272 76.593 283.607 76.9288 283.607 77.343V79.4855C283.607 81.1999 282.927 82.8446 281.715 84.0568C280.502 85.2692 278.858 85.9504 277.144 85.9504C276.729 85.9504 276.394 85.6145 276.394 85.2004C276.394 84.7862 276.729 84.4504 277.144 84.4504C278.46 84.4504 279.723 83.9273 280.654 82.9963C281.585 82.0653 282.107 80.8021 282.107 79.4855Z" fill="#0E0E0E"/>
<path d="M276.394 85.2C276.393 84.4517 276.096 83.7339 275.567 83.2049C275.038 82.6758 274.32 82.3788 273.572 82.3787H269.286C268.538 82.3787 267.82 82.6758 267.291 83.2049C266.762 83.7339 266.465 84.4517 266.465 85.2C266.465 85.9483 266.762 86.666 267.291 87.1951C267.82 87.7243 268.538 88.0213 269.286 88.0213H273.572C274.32 88.0212 275.038 87.7242 275.567 87.1951C276.096 86.666 276.394 85.9482 276.394 85.2ZM277.894 85.2C277.894 86.346 277.438 87.4452 276.628 88.2557C275.818 89.066 274.718 89.5212 273.572 89.5213H269.286C268.14 89.5213 267.041 89.0661 266.23 88.2557C265.42 87.4452 264.965 86.346 264.965 85.2C264.965 84.054 265.42 82.9547 266.23 82.1443C267.041 81.334 268.14 80.8787 269.286 80.8787H273.572C274.718 80.8788 275.818 81.334 276.628 82.1443C277.438 82.9547 277.893 84.054 277.894 85.2Z" fill="#0E0E0E"/>
<path d="M282.107 67.3426V64.4861C282.107 61.275 280.832 58.1951 278.561 55.9246C276.291 53.6542 273.212 52.3787 270.001 52.3787C266.79 52.3787 263.71 53.654 261.439 55.9246C259.169 58.1951 257.894 61.275 257.894 64.4861V67.3426C257.894 67.7568 257.558 68.0926 257.144 68.0926C256.729 68.0926 256.394 67.7568 256.394 67.3426V64.4861C256.394 60.8772 257.827 57.4159 260.379 54.864C262.931 52.3122 266.392 50.8787 270.001 50.8787C273.61 50.8787 277.07 52.3124 279.622 54.864C282.174 57.4158 283.607 60.8772 283.607 64.4861V67.3426C283.607 67.7568 283.272 68.0926 282.857 68.0926C282.443 68.0923 282.107 67.7565 282.107 67.3426Z" fill="#0E0E0E"/>
<path d="M264.965 65.9148V61.6287C264.965 61.2145 265.301 60.8787 265.715 60.8787C266.129 60.8787 266.465 61.2145 266.465 61.6287V65.9148C266.465 66.3289 266.129 66.6648 265.715 66.6648C265.301 66.6648 264.965 66.3289 264.965 65.9148Z" fill="#0E0E0E"/>
<path d="M273.535 65.9148V61.6287C273.535 61.2145 273.871 60.8787 274.285 60.8787C274.699 60.8787 275.035 61.2145 275.035 61.6287V65.9148C275.035 66.3289 274.699 66.6648 274.285 66.6648C273.871 66.6648 273.535 66.3289 273.535 65.9148Z" fill="#0E0E0E"/>
<path d="M264.965 71.6287C264.965 71.2145 265.301 70.8787 265.715 70.8787C266.129 70.8787 266.465 71.2145 266.465 71.6287C266.465 72.2446 266.794 72.7416 267.436 73.1209C268.094 73.5104 269.025 73.7283 270.001 73.7283C270.976 73.7283 271.907 73.5103 272.565 73.1209C273.207 72.7416 273.536 72.2446 273.536 71.6287C273.536 71.2145 273.872 70.8788 274.286 70.8787C274.7 70.8787 275.036 71.2145 275.036 71.6287C275.036 72.9128 274.294 73.8412 273.328 74.4119C272.38 74.9722 271.168 75.2283 270.001 75.2283C268.834 75.2283 267.621 74.9723 266.673 74.4119C265.707 73.8412 264.965 72.9128 264.965 71.6287Z" fill="#0E0E0E"/>
<path d="M76.7246 50.9043V64H74.5977L68.4365 55.0791H68.3223V64H65.9492V50.9043H68.0762L74.2373 59.8252H74.3516V50.9043H76.7246ZM82.877 64.1934C81.8926 64.1934 81.043 63.9883 80.3281 63.5781C79.6133 63.1621 79.0625 62.5762 78.6758 61.8203C78.2949 61.0645 78.1045 60.1738 78.1045 59.1484C78.1045 58.1348 78.2949 57.2471 78.6758 56.4854C79.0566 55.7178 79.5928 55.1201 80.2842 54.6924C80.9756 54.2646 81.79 54.0508 82.7275 54.0508C83.3311 54.0508 83.9023 54.1475 84.4414 54.3408C84.9863 54.5342 85.4668 54.833 85.8828 55.2373C86.3047 55.6416 86.6357 56.1572 86.876 56.7842C87.1162 57.4053 87.2363 58.1465 87.2363 59.0078V59.7285H79.1855V58.1729H86.085L85.0039 58.6299C85.0039 58.0732 84.9189 57.5898 84.749 57.1797C84.5791 56.7637 84.3271 56.4385 83.9932 56.2041C83.6592 55.9697 83.2432 55.8525 82.7451 55.8525C82.2471 55.8525 81.8223 55.9697 81.4707 56.2041C81.1191 56.4385 80.8525 56.7549 80.6709 57.1533C80.4893 57.5459 80.3984 57.9854 80.3984 58.4717V59.5527C80.3984 60.1504 80.501 60.6631 80.7061 61.0908C80.917 61.5127 81.21 61.835 81.585 62.0576C81.9658 62.2803 82.4082 62.3916 82.9121 62.3916C83.2402 62.3916 83.5391 62.3447 83.8086 62.251C84.084 62.1572 84.3184 62.0166 84.5117 61.8291C84.7109 61.6357 84.8633 61.3984 84.9688 61.1172L87.1309 61.3721C86.9902 61.9404 86.7295 62.4385 86.3486 62.8662C85.9736 63.2881 85.4902 63.6162 84.8984 63.8506C84.3125 64.0791 83.6387 64.1934 82.877 64.1934ZM92.8438 64.1934C91.8594 64.1934 91.0098 63.9883 90.2949 63.5781C89.5801 63.1621 89.0293 62.5762 88.6426 61.8203C88.2617 61.0645 88.0713 60.1738 88.0713 59.1484C88.0713 58.1348 88.2617 57.2471 88.6426 56.4854C89.0234 55.7178 89.5596 55.1201 90.251 54.6924C90.9424 54.2646 91.7568 54.0508 92.6943 54.0508C93.2979 54.0508 93.8691 54.1475 94.4082 54.3408C94.9531 54.5342 95.4336 54.833 95.8496 55.2373C96.2715 55.6416 96.6025 56.1572 96.8428 56.7842C97.083 57.4053 97.2031 58.1465 97.2031 59.0078V59.7285H89.1523V58.1729H96.0518L94.9707 58.6299C94.9707 58.0732 94.8857 57.5898 94.7158 57.1797C94.5459 56.7637 94.2939 56.4385 93.96 56.2041C93.626 55.9697 93.21 55.8525 92.7119 55.8525C92.2139 55.8525 91.7891 55.9697 91.4375 56.2041C91.0859 56.4385 90.8193 56.7549 90.6377 57.1533C90.4561 57.5459 90.3652 57.9854 90.3652 58.4717V59.5527C90.3652 60.1504 90.4678 60.6631 90.6729 61.0908C90.8838 61.5127 91.1768 61.835 91.5518 62.0576C91.9326 62.2803 92.375 62.3916 92.8789 62.3916C93.207 62.3916 93.5059 62.3447 93.7754 62.251C94.0508 62.1572 94.2852 62.0166 94.4785 61.8291C94.6777 61.6357 94.8301 61.3984 94.9355 61.1172L97.0977 61.3721C96.957 61.9404 96.6963 62.4385 96.3154 62.8662C95.9404 63.2881 95.457 63.6162 94.8652 63.8506C94.2793 64.0791 93.6055 64.1934 92.8438 64.1934ZM102.081 64.1758C101.313 64.1758 100.622 63.9795 100.007 63.5869C99.3975 63.1885 98.917 62.6113 98.5654 61.8555C98.2139 61.0996 98.0381 60.1826 98.0381 59.1045C98.0381 58.0088 98.2168 57.0859 98.5742 56.3359C98.9375 55.5859 99.4238 55.0176 100.033 54.6309C100.643 54.2441 101.325 54.0508 102.081 54.0508C102.661 54.0508 103.136 54.1475 103.505 54.3408C103.874 54.5342 104.167 54.7686 104.384 55.0439C104.606 55.3135 104.776 55.5654 104.894 55.7998H104.99V50.9043H107.293V64H105.034V62.4443H104.894C104.771 62.6846 104.598 62.9395 104.375 63.209C104.152 63.4727 103.856 63.7012 103.487 63.8945C103.118 64.082 102.649 64.1758 102.081 64.1758ZM102.723 62.2773C103.215 62.2773 103.631 62.1455 103.971 61.8818C104.316 61.6123 104.58 61.2402 104.762 60.7656C104.943 60.2852 105.034 59.7285 105.034 59.0957C105.034 58.457 104.943 57.9033 104.762 57.4346C104.586 56.96 104.325 56.5938 103.979 56.3359C103.64 56.0781 103.221 55.9492 102.723 55.9492C102.213 55.9492 101.785 56.084 101.439 56.3535C101.094 56.623 100.833 56.9951 100.657 57.4697C100.487 57.9443 100.402 58.4863 100.402 59.0957C100.402 59.7051 100.49 60.25 100.666 60.7305C100.842 61.2109 101.1 61.5889 101.439 61.8643C101.785 62.1396 102.213 62.2773 102.723 62.2773ZM112.9 64V50.9043H115.273V56.4502H121.338V50.9043H123.711V64H121.338V58.4453H115.273V64H112.9ZM129.863 64.1934C128.879 64.1934 128.029 63.9883 127.314 63.5781C126.6 63.1621 126.049 62.5762 125.662 61.8203C125.281 61.0645 125.091 60.1738 125.091 59.1484C125.091 58.1348 125.281 57.2471 125.662 56.4854C126.043 55.7178 126.579 55.1201 127.271 54.6924C127.962 54.2646 128.776 54.0508 129.714 54.0508C130.317 54.0508 130.889 54.1475 131.428 54.3408C131.973 54.5342 132.453 54.833 132.869 55.2373C133.291 55.6416 133.622 56.1572 133.862 56.7842C134.103 57.4053 134.223 58.1465 134.223 59.0078V59.7285H126.172V58.1729H133.071L131.99 58.6299C131.99 58.0732 131.905 57.5898 131.735 57.1797C131.565 56.7637 131.313 56.4385 130.979 56.2041C130.646 55.9697 130.229 55.8525 129.731 55.8525C129.233 55.8525 128.809 55.9697 128.457 56.2041C128.105 56.4385 127.839 56.7549 127.657 57.1533C127.476 57.5459 127.385 57.9854 127.385 58.4717V59.5527C127.385 60.1504 127.487 60.6631 127.692 61.0908C127.903 61.5127 128.196 61.835 128.571 62.0576C128.952 62.2803 129.395 62.3916 129.898 62.3916C130.227 62.3916 130.525 62.3447 130.795 62.251C131.07 62.1572 131.305 62.0166 131.498 61.8291C131.697 61.6357 131.85 61.3984 131.955 61.1172L134.117 61.3721C133.977 61.9404 133.716 62.4385 133.335 62.8662C132.96 63.2881 132.477 63.6162 131.885 63.8506C131.299 64.0791 130.625 64.1934 129.863 64.1934ZM137.791 50.9043V64H135.479V50.9043H137.791ZM139.505 67.6738V54.1738H141.772V55.7998H141.913C142.03 55.5654 142.197 55.3135 142.414 55.0439C142.631 54.7686 142.924 54.5342 143.293 54.3408C143.668 54.1475 144.146 54.0508 144.726 54.0508C145.481 54.0508 146.164 54.2441 146.773 54.6309C147.383 55.0176 147.866 55.5859 148.224 56.3359C148.587 57.0859 148.769 58.0088 148.769 59.1045C148.769 60.1826 148.593 61.0996 148.241 61.8555C147.89 62.6113 147.406 63.1885 146.791 63.5869C146.182 63.9795 145.49 64.1758 144.717 64.1758C144.16 64.1758 143.694 64.082 143.319 63.8945C142.95 63.7012 142.651 63.4727 142.423 63.209C142.2 62.9395 142.03 62.6846 141.913 62.4443H141.816V67.6738H139.505ZM144.084 62.2773C144.594 62.2773 145.019 62.1396 145.358 61.8643C145.704 61.5889 145.965 61.2109 146.141 60.7305C146.316 60.25 146.404 59.7051 146.404 59.0957C146.404 58.4863 146.316 57.9443 146.141 57.4697C145.965 56.9951 145.707 56.623 145.367 56.3535C145.027 56.084 144.6 55.9492 144.084 55.9492C143.586 55.9492 143.164 56.0781 142.818 56.3359C142.479 56.5938 142.218 56.96 142.036 57.4346C141.86 57.9033 141.772 58.457 141.772 59.0957C141.772 59.7285 141.86 60.2852 142.036 60.7656C142.218 61.2402 142.481 61.6123 142.827 61.8818C143.173 62.1455 143.592 62.2773 144.084 62.2773ZM152.267 60.001V59.8252C152.267 59.0576 152.337 58.46 152.478 58.0322C152.618 57.5986 152.82 57.2559 153.084 57.0039C153.354 56.752 153.676 56.5088 154.051 56.2744C154.443 56.0342 154.769 55.7559 155.026 55.4395C155.29 55.1172 155.422 54.7305 155.422 54.2793C155.422 53.9453 155.343 53.6553 155.185 53.4092C155.032 53.1631 154.821 52.9727 154.552 52.8379C154.282 52.6973 153.986 52.627 153.664 52.627C153.365 52.627 153.078 52.6914 152.803 52.8203C152.533 52.9492 152.308 53.1426 152.126 53.4004C151.95 53.6582 151.851 53.9893 151.827 54.3936H149.56C149.577 53.585 149.771 52.9082 150.14 52.3633C150.515 51.8184 151.01 51.4111 151.625 51.1416C152.246 50.8662 152.926 50.7285 153.664 50.7285C154.484 50.7285 155.205 50.8721 155.826 51.1592C156.447 51.4463 156.931 51.8535 157.276 52.3809C157.622 52.9023 157.795 53.5205 157.795 54.2354C157.795 54.9736 157.622 55.5947 157.276 56.0986C156.937 56.5967 156.474 57.0215 155.888 57.373C155.542 57.584 155.258 57.792 155.035 57.9971C154.812 58.2021 154.648 58.4453 154.543 58.7266C154.438 59.0078 154.385 59.374 154.385 59.8252V60.001H152.267ZM153.339 64.1494C152.923 64.1494 152.577 64.0205 152.302 63.7627C152.032 63.499 151.897 63.165 151.897 62.7607C151.897 62.3506 152.032 62.0166 152.302 61.7588C152.577 61.4951 152.923 61.3633 153.339 61.3633C153.761 61.3633 154.106 61.4951 154.376 61.7588C154.646 62.0166 154.78 62.3506 154.78 62.7607C154.78 63.165 154.646 63.499 154.376 63.7627C154.106 64.0205 153.761 64.1494 153.339 64.1494ZM166.452 64.1758C165.69 64.1758 164.993 64.041 164.36 63.7715C163.733 63.4961 163.235 63.0859 162.866 62.541C162.497 61.9961 162.312 61.3223 162.312 60.5195V60.3174H164.668V60.5195C164.668 60.8711 164.741 61.1758 164.888 61.4336C165.04 61.6914 165.251 61.8877 165.521 62.0225C165.79 62.1572 166.101 62.2246 166.452 62.2246C166.833 62.2246 167.155 62.1455 167.419 61.9873C167.688 61.8291 167.891 61.5918 168.025 61.2754C168.166 60.959 168.236 60.5723 168.236 60.1152V50.9043H170.583V60.1152C170.583 60.959 170.413 61.6855 170.073 62.2949C169.739 62.8984 169.262 63.3643 168.641 63.6924C168.025 64.0146 167.296 64.1758 166.452 64.1758ZM178.651 59.8779V54.1738H180.963V64H178.722V62.251H178.616C178.394 62.8018 178.03 63.2529 177.526 63.6045C177.022 63.9561 176.401 64.1289 175.663 64.123C175.019 64.123 174.45 63.9824 173.958 63.7012C173.472 63.4141 173.088 62.9951 172.807 62.4443C172.531 61.8877 172.394 61.2168 172.394 60.4316V54.1738H174.705V60.0801C174.705 60.6953 174.875 61.1875 175.215 61.5566C175.561 61.9258 176.012 62.1074 176.568 62.1016C176.908 62.1016 177.236 62.0195 177.553 61.8555C177.875 61.6914 178.139 61.4453 178.344 61.1172C178.549 60.7891 178.651 60.376 178.651 59.8779ZM190.429 56.7842L188.328 57.0039C188.24 56.6816 188.05 56.3975 187.757 56.1514C187.464 55.8994 187.051 55.7734 186.518 55.7734C186.037 55.7734 185.633 55.8789 185.305 56.0898C184.982 56.3008 184.821 56.5703 184.821 56.8984C184.821 57.1855 184.927 57.4229 185.138 57.6104C185.354 57.792 185.712 57.9385 186.21 58.0498L187.889 58.4014C188.809 58.5947 189.497 58.9111 189.954 59.3506C190.411 59.79 190.64 60.3584 190.64 61.0557C190.64 61.6709 190.461 62.2158 190.104 62.6904C189.746 63.165 189.251 63.5342 188.618 63.7979C187.991 64.0615 187.268 64.1934 186.447 64.1934C185.246 64.1934 184.279 63.9414 183.547 63.4375C182.82 62.9277 182.384 62.2217 182.237 61.3193L184.496 61.1084C184.596 61.5479 184.812 61.8818 185.146 62.1104C185.486 62.333 185.92 62.4443 186.447 62.4443C186.998 62.4443 187.44 62.333 187.774 62.1104C188.108 61.8818 188.275 61.6035 188.275 61.2754C188.275 60.7246 187.836 60.3496 186.957 60.1504L185.278 59.7988C184.335 59.5938 183.638 59.2627 183.187 58.8057C182.735 58.3428 182.51 57.7539 182.51 57.0391C182.51 56.4297 182.677 55.9023 183.011 55.457C183.345 55.0117 183.811 54.666 184.408 54.4199C185.006 54.1738 185.697 54.0508 186.482 54.0508C187.637 54.0508 188.542 54.2998 189.198 54.7979C189.86 55.29 190.271 55.9521 190.429 56.7842ZM196.783 54.1738V55.9668H191.149V54.1738H196.783ZM192.529 51.8359H194.841V61.0469C194.841 61.4336 194.926 61.7207 195.096 61.9082C195.266 62.0898 195.535 62.1807 195.904 62.1807C196.004 62.1807 196.115 62.1719 196.238 62.1543C196.361 62.1367 196.473 62.1162 196.572 62.0928L196.968 63.9033C196.722 63.9795 196.473 64.0352 196.221 64.0703C195.969 64.1113 195.717 64.1318 195.465 64.1318C194.551 64.1318 193.833 63.8916 193.312 63.4111C192.79 62.9248 192.529 62.2627 192.529 61.4248V51.8359ZM65.3779 77.8906V75.9043H75.8193V77.8906H71.7764V89H69.4297V77.8906H65.3779ZM78.5439 89.2021C77.917 89.2021 77.3545 89.0908 76.8564 88.8682C76.3584 88.6396 75.9658 88.3057 75.6787 87.8662C75.3916 87.4268 75.248 86.8848 75.248 86.2402C75.248 85.6895 75.3506 85.2324 75.5557 84.8691C75.7607 84.5059 76.0391 84.2158 76.3906 83.999C76.748 83.7822 77.1494 83.6182 77.5947 83.5068C78.04 83.3896 78.5 83.3076 78.9746 83.2607C79.5547 83.1963 80.0234 83.1406 80.3809 83.0938C80.7383 83.0469 80.9961 82.9707 81.1543 82.8652C81.3184 82.7598 81.4004 82.5957 81.4004 82.373V82.3291C81.4004 81.8545 81.2598 81.4854 80.9785 81.2217C80.6973 80.958 80.2871 80.8262 79.748 80.8262C79.1797 80.8262 78.7285 80.9492 78.3945 81.1953C78.0664 81.4414 77.8438 81.7314 77.7266 82.0654L75.5732 81.7578C75.7432 81.1602 76.0244 80.6621 76.417 80.2637C76.8096 79.8594 77.2871 79.5576 77.8496 79.3584C78.418 79.1533 79.0449 79.0508 79.7305 79.0508C80.1992 79.0508 80.668 79.1064 81.1367 79.2178C81.6055 79.3232 82.0361 79.5049 82.4287 79.7627C82.8213 80.0205 83.1348 80.3662 83.3691 80.7998C83.6035 81.2334 83.7207 81.7754 83.7207 82.4258V89H81.4971V87.6465H81.4268C81.2861 87.916 81.0869 88.1709 80.8291 88.4111C80.5771 88.6455 80.2607 88.8359 79.8799 88.9824C79.5049 89.1289 79.0596 89.2021 78.5439 89.2021ZM79.1328 87.4971C79.6016 87.4971 80.0059 87.4062 80.3457 87.2246C80.6855 87.0371 80.9492 86.791 81.1367 86.4863C81.3242 86.1758 81.418 85.8389 81.418 85.4756V84.3242C81.3418 84.3828 81.2188 84.4385 81.0488 84.4912C80.8789 84.5381 80.6855 84.582 80.4688 84.623C80.252 84.6641 80.0381 84.6992 79.8271 84.7285C79.6221 84.7578 79.4434 84.7812 79.291 84.7988C78.9453 84.8457 78.6348 84.9248 78.3594 85.0361C78.0898 85.1416 77.876 85.2881 77.7178 85.4756C77.5596 85.6631 77.4805 85.9062 77.4805 86.2051C77.4805 86.6328 77.6357 86.9551 77.9463 87.1719C78.2568 87.3887 78.6523 87.4971 79.1328 87.4971ZM85.4346 92.6738V79.1738H87.7021V80.7998H87.8428C87.96 80.5654 88.127 80.3135 88.3438 80.0439C88.5605 79.7686 88.8535 79.5342 89.2227 79.3408C89.5977 79.1475 90.0752 79.0508 90.6553 79.0508C91.4111 79.0508 92.0938 79.2441 92.7031 79.6309C93.3125 80.0176 93.7959 80.5859 94.1533 81.3359C94.5166 82.0859 94.6982 83.0088 94.6982 84.1045C94.6982 85.1826 94.5225 86.0996 94.1709 86.8555C93.8193 87.6113 93.3359 88.1885 92.7207 88.5869C92.1113 88.9795 91.4199 89.1758 90.6465 89.1758C90.0898 89.1758 89.624 89.082 89.249 88.8945C88.8799 88.7012 88.5811 88.4727 88.3525 88.209C88.1299 87.9395 87.96 87.6846 87.8428 87.4443H87.7461V92.6738H85.4346ZM90.0137 87.2773C90.5234 87.2773 90.9482 87.1396 91.2881 86.8643C91.6338 86.5889 91.8945 86.2109 92.0703 85.7305C92.2461 85.25 92.334 84.7051 92.334 84.0957C92.334 83.4863 92.2461 82.9443 92.0703 82.4697C91.8945 81.9951 91.6367 81.623 91.2969 81.3535C90.957 81.084 90.5293 80.9492 90.0137 80.9492C89.5156 80.9492 89.0938 81.0781 88.748 81.3359C88.4082 81.5938 88.1475 81.96 87.9658 82.4346C87.79 82.9033 87.7021 83.457 87.7021 84.0957C87.7021 84.7285 87.79 85.2852 87.9658 85.7656C88.1475 86.2402 88.4111 86.6123 88.7568 86.8818C89.1025 87.1455 89.5215 87.2773 90.0137 87.2773ZM104.498 89.2021C103.479 89.2021 102.594 89.0439 101.844 88.7275C101.094 88.4111 100.508 87.9512 100.086 87.3477C99.6641 86.7383 99.4355 86 99.4004 85.1328H101.738C101.773 85.5898 101.914 85.9707 102.16 86.2754C102.406 86.5742 102.729 86.7998 103.127 86.9521C103.531 87.1045 103.979 87.1807 104.472 87.1807C104.987 87.1807 105.441 87.1016 105.834 86.9434C106.227 86.7852 106.534 86.5654 106.757 86.2842C106.979 86.0029 107.091 85.6748 107.091 85.2998C107.091 84.96 106.991 84.6816 106.792 84.4648C106.593 84.2422 106.317 84.0547 105.966 83.9023C105.614 83.75 105.201 83.6152 104.727 83.498L103.241 83.1113C102.163 82.8359 101.313 82.417 100.692 81.8545C100.071 81.2861 99.7607 80.5303 99.7607 79.5869C99.7607 78.8135 99.9688 78.1396 100.385 77.5654C100.801 76.9854 101.369 76.5342 102.09 76.2119C102.816 75.8896 103.637 75.7285 104.551 75.7285C105.482 75.7285 106.3 75.8896 107.003 76.2119C107.706 76.5342 108.257 76.9795 108.655 77.5479C109.054 78.1162 109.262 78.7695 109.279 79.5078H106.985C106.927 78.9453 106.678 78.5117 106.238 78.207C105.805 77.8965 105.233 77.7412 104.524 77.7412C104.032 77.7412 103.607 77.8145 103.25 77.9609C102.898 78.1074 102.629 78.3096 102.441 78.5674C102.254 78.8252 102.16 79.1182 102.16 79.4463C102.16 79.8096 102.269 80.1084 102.485 80.3428C102.708 80.5713 102.989 80.7559 103.329 80.8965C103.675 81.0371 104.026 81.1543 104.384 81.248L105.605 81.5557C106.098 81.6729 106.572 81.8311 107.029 82.0303C107.486 82.2236 107.896 82.4697 108.26 82.7686C108.629 83.0615 108.919 83.4189 109.13 83.8408C109.347 84.2627 109.455 84.7578 109.455 85.3262C109.455 86.0879 109.259 86.7617 108.866 87.3477C108.474 87.9277 107.908 88.3818 107.17 88.71C106.432 89.0381 105.541 89.2021 104.498 89.2021ZM117.04 84.8779V79.1738H119.352V89H117.11V87.251H117.005C116.782 87.8018 116.419 88.2529 115.915 88.6045C115.411 88.9561 114.79 89.1289 114.052 89.123C113.407 89.123 112.839 88.9824 112.347 88.7012C111.86 88.4141 111.477 87.9951 111.195 87.4443C110.92 86.8877 110.782 86.2168 110.782 85.4316V79.1738H113.094V85.0801C113.094 85.6953 113.264 86.1875 113.604 86.5566C113.949 86.9258 114.4 87.1074 114.957 87.1016C115.297 87.1016 115.625 87.0195 115.941 86.8555C116.264 86.6914 116.527 86.4453 116.732 86.1172C116.938 85.7891 117.04 85.376 117.04 84.8779ZM121.065 92.6738V79.1738H123.333V80.7998H123.474C123.591 80.5654 123.758 80.3135 123.975 80.0439C124.191 79.7686 124.484 79.5342 124.854 79.3408C125.229 79.1475 125.706 79.0508 126.286 79.0508C127.042 79.0508 127.725 79.2441 128.334 79.6309C128.943 80.0176 129.427 80.5859 129.784 81.3359C130.147 82.0859 130.329 83.0088 130.329 84.1045C130.329 85.1826 130.153 86.0996 129.802 86.8555C129.45 87.6113 128.967 88.1885 128.352 88.5869C127.742 88.9795 127.051 89.1758 126.277 89.1758C125.721 89.1758 125.255 89.082 124.88 88.8945C124.511 88.7012 124.212 88.4727 123.983 88.209C123.761 87.9395 123.591 87.6846 123.474 87.4443H123.377V92.6738H121.065ZM125.645 87.2773C126.154 87.2773 126.579 87.1396 126.919 86.8643C127.265 86.5889 127.525 86.2109 127.701 85.7305C127.877 85.25 127.965 84.7051 127.965 84.0957C127.965 83.4863 127.877 82.9443 127.701 82.4697C127.525 81.9951 127.268 81.623 126.928 81.3535C126.588 81.084 126.16 80.9492 125.645 80.9492C125.146 80.9492 124.725 81.0781 124.379 81.3359C124.039 81.5938 123.778 81.96 123.597 82.4346C123.421 82.9033 123.333 83.457 123.333 84.0957C123.333 84.7285 123.421 85.2852 123.597 85.7656C123.778 86.2402 124.042 86.6123 124.388 86.8818C124.733 87.1455 125.152 87.2773 125.645 87.2773ZM131.612 92.6738V79.1738H133.88V80.7998H134.021C134.138 80.5654 134.305 80.3135 134.521 80.0439C134.738 79.7686 135.031 79.5342 135.4 79.3408C135.775 79.1475 136.253 79.0508 136.833 79.0508C137.589 79.0508 138.271 79.2441 138.881 79.6309C139.49 80.0176 139.974 80.5859 140.331 81.3359C140.694 82.0859 140.876 83.0088 140.876 84.1045C140.876 85.1826 140.7 86.0996 140.349 86.8555C139.997 87.6113 139.514 88.1885 138.898 88.5869C138.289 88.9795 137.598 89.1758 136.824 89.1758C136.268 89.1758 135.802 89.082 135.427 88.8945C135.058 88.7012 134.759 88.4727 134.53 88.209C134.308 87.9395 134.138 87.6846 134.021 87.4443H133.924V92.6738H131.612ZM136.191 87.2773C136.701 87.2773 137.126 87.1396 137.466 86.8643C137.812 86.5889 138.072 86.2109 138.248 85.7305C138.424 85.25 138.512 84.7051 138.512 84.0957C138.512 83.4863 138.424 82.9443 138.248 82.4697C138.072 81.9951 137.814 81.623 137.475 81.3535C137.135 81.084 136.707 80.9492 136.191 80.9492C135.693 80.9492 135.271 81.0781 134.926 81.3359C134.586 81.5938 134.325 81.96 134.144 82.4346C133.968 82.9033 133.88 83.457 133.88 84.0957C133.88 84.7285 133.968 85.2852 134.144 85.7656C134.325 86.2402 134.589 86.6123 134.935 86.8818C135.28 87.1455 135.699 87.2773 136.191 87.2773ZM146.439 89.1934C145.479 89.1934 144.646 88.9824 143.943 88.5605C143.24 88.1387 142.695 87.5469 142.309 86.7852C141.928 86.0234 141.737 85.1387 141.737 84.1309C141.737 83.1172 141.928 82.2295 142.309 81.4678C142.695 80.7002 143.24 80.1055 143.943 79.6836C144.646 79.2617 145.479 79.0508 146.439 79.0508C147.4 79.0508 148.232 79.2617 148.936 79.6836C149.639 80.1055 150.184 80.7002 150.57 81.4678C150.957 82.2295 151.15 83.1172 151.15 84.1309C151.15 85.1387 150.957 86.0234 150.57 86.7852C150.184 87.5469 149.639 88.1387 148.936 88.5605C148.232 88.9824 147.4 89.1934 146.439 89.1934ZM146.439 87.3301C146.973 87.3301 147.412 87.1895 147.758 86.9082C148.104 86.6211 148.361 86.2344 148.531 85.748C148.707 85.2617 148.795 84.7227 148.795 84.1309C148.795 83.5273 148.707 82.9824 148.531 82.4961C148.361 82.0098 148.104 81.626 147.758 81.3447C147.412 81.0576 146.973 80.9141 146.439 80.9141C145.918 80.9141 145.481 81.0576 145.13 81.3447C144.778 81.626 144.515 82.0098 144.339 82.4961C144.169 82.9824 144.084 83.5273 144.084 84.1309C144.084 84.7227 144.169 85.2617 144.339 85.748C144.515 86.2344 144.778 86.6211 145.13 86.9082C145.481 87.1895 145.918 87.3301 146.439 87.3301ZM152.425 89V79.1738H154.666V80.8262H154.771C154.947 80.252 155.255 79.8125 155.694 79.5078C156.134 79.1973 156.635 79.042 157.197 79.042C157.32 79.042 157.461 79.0479 157.619 79.0596C157.783 79.0713 157.918 79.0859 158.023 79.1035V81.2305C157.924 81.1953 157.769 81.166 157.558 81.1426C157.347 81.1191 157.145 81.1074 156.951 81.1074C156.523 81.1074 156.143 81.1982 155.809 81.3799C155.475 81.5615 155.211 81.8105 155.018 82.127C154.83 82.4434 154.736 82.8125 154.736 83.2344V89H152.425ZM164.316 79.1738V80.9668H158.683V79.1738H164.316ZM160.062 76.8359H162.374V86.0469C162.374 86.4336 162.459 86.7207 162.629 86.9082C162.799 87.0898 163.068 87.1807 163.438 87.1807C163.537 87.1807 163.648 87.1719 163.771 87.1543C163.895 87.1367 164.006 87.1162 164.105 87.0928L164.501 88.9033C164.255 88.9795 164.006 89.0352 163.754 89.0703C163.502 89.1113 163.25 89.1318 162.998 89.1318C162.084 89.1318 161.366 88.8916 160.845 88.4111C160.323 87.9248 160.062 87.2627 160.062 86.4248V76.8359ZM167.278 89.1494C166.88 89.1494 166.543 89.0146 166.268 88.7451C165.998 88.4697 165.863 88.1357 165.863 87.7432C165.863 87.3506 165.998 87.0195 166.268 86.75C166.543 86.4746 166.88 86.3369 167.278 86.3369C167.677 86.3369 168.011 86.4746 168.28 86.75C168.556 87.0195 168.693 87.3506 168.693 87.7432C168.693 88.1357 168.556 88.4697 168.28 88.7451C168.011 89.0146 167.677 89.1494 167.278 89.1494Z" fill="#0E0E0E"/>
<mask id="mask1_2412_3044" style="mask-type:alpha" maskUnits="userSpaceOnUse" x="315" y="140" width="20" height="21">
<g clip-path="url(#clip2_2412_3044)">
<g clip-path="url(#clip3_2412_3044)">
<path d="M235 140.695C254.425 140.502 269.706 140.431 285.006 140.407L335.001 190.398V170.91C335.019 193.569 335.031 212.705 334.696 240.4H235V140.695ZM335.001 160.403V170.91C334.998 167.354 334.996 163.712 334.994 159.937C334.998 160.092 335.001 160.247 335.001 160.403ZM334.993 159.886C334.719 149.079 325.874 140.403 315.001 140.403H289.147C303.068 140.388 317.315 140.404 335 140.4C334.991 147.372 334.99 153.802 334.993 159.886ZM289.147 140.403C287.765 140.404 286.385 140.404 285.006 140.407L285.003 140.403H289.147Z" fill="black"/>
</g>
</g>
</mask>
<g mask="url(#mask1_2412_3044)">
<rect x="315" y="140.4" width="20" height="20" fill="#F9FAFB"/>
</g>
<defs>
<clipPath id="clip0_2412_3044">
<rect width="20" height="20" fill="white"/>
</clipPath>
<clipPath id="clip1_2412_3044">
<rect width="20" height="20" fill="white"/>
</clipPath>
<clipPath id="clip2_2412_3044">
<rect width="20" height="20" fill="white" transform="translate(315 140.4)"/>
</clipPath>
<clipPath id="clip3_2412_3044">
<rect width="20" height="20" fill="white" transform="translate(315 140.4)"/>
</clipPath>
</defs>
</svg>
