<svg width="335" height="161" viewBox="0 0 335 161" fill="none" xmlns="http://www.w3.org/2000/svg">
<path d="M315 10C320.523 10 325 14.4772 325 20V130.41H40C34.4772 130.41 30.0001 125.933 30 120.41V10H315Z" fill="#F9FAFB"/>
<path d="M315 10C320.523 10 325 14.4772 325 20V130.41H40C34.4772 130.41 30.0001 125.933 30 120.41V10H315Z" stroke="#F9FAFB" stroke-width="20"/>
<mask id="mask0_2436_5770" style="mask-type:alpha" maskUnits="userSpaceOnUse" x="0" y="0" width="20" height="20">
<g clip-path="url(#clip0_2436_5770)">
<g clip-path="url(#clip1_2436_5770)">
<path d="M-80 0.29489C-60.575 0.102187 -45.2944 0.0312865 -29.9941 0.0067885L20.001 49.998V30.5098C20.0188 53.1689 20.0309 72.3054 19.6963 100H-80V0.29489ZM20.001 20.0029V30.5098C19.9982 26.9545 19.9959 23.3125 19.9941 19.5371C19.9977 19.692 20.001 19.8472 20.001 20.0029ZM19.9932 19.4863C19.7191 8.67939 10.8739 0.00288988 0.000976562 0.00288988H-25.8525C-11.9315 -0.0122087 2.31487 0.00408769 20 -9.2925e-06C19.9912 6.97219 19.9903 13.4026 19.9932 19.4863ZM-25.8525 0.00288988C-27.2353 0.00439287 -28.6148 0.00459123 -29.9941 0.0067885L-29.9971 0.00288988H-25.8525Z" fill="black"/>
</g>
</g>
</mask>
<g mask="url(#mask0_2436_5770)">
<path d="M0 0H20V20C8.95431 20 0 11.0457 0 0Z" fill="#F9FAFB"/>
</g>
<rect x="40" y="20" width="275" height="100.41" rx="20" fill="#B9FB6A"/>
<g clip-path="url(#clip2_2436_5770)">
<path d="M264.5 76.9083C264.074 76.9083 263.729 76.563 263.729 76.1375V51.4708C263.729 51.0453 264.074 50.7 264.5 50.7C264.925 50.7 265.271 51.0453 265.271 51.4708V76.1375C265.271 76.563 264.925 76.9083 264.5 76.9083Z" fill="black"/>
<path d="M264.5 76.9083C264.303 76.9083 264.106 76.8328 263.955 76.6833L257.788 70.5166C257.487 70.216 257.487 69.7273 257.788 69.4266C258.089 69.126 258.577 69.126 258.878 69.4266L264.5 75.0476L270.121 69.4266C270.422 69.126 270.911 69.126 271.211 69.4266C271.512 69.7273 271.512 70.216 271.211 70.5166L265.045 76.6833C264.895 76.8328 264.698 76.9083 264.5 76.9083Z" fill="black"/>
<path d="M279.146 87.7H249.854C247.728 87.7 246 85.9703 246 83.8459V76.1375C246 75.712 246.345 75.3667 246.771 75.3667C247.196 75.3667 247.542 75.712 247.542 76.1375V83.8459C247.542 85.1208 248.579 86.1584 249.854 86.1584H279.146C280.421 86.1584 281.458 85.1208 281.458 83.8459V76.1375C281.458 75.712 281.804 75.3667 282.229 75.3667C282.655 75.3667 283 75.712 283 76.1375V83.8459C283 85.9703 281.272 87.7 279.146 87.7Z" fill="black"/>
</g>
<path d="M81.3965 64H78.0742V61.9434H81.2734C82.1816 61.9434 82.9404 61.7793 83.5498 61.4512C84.165 61.1172 84.625 60.6162 84.9297 59.9482C85.2402 59.2803 85.3955 58.4453 85.3955 57.4434C85.3955 56.4414 85.2432 55.6094 84.9385 54.9473C84.6338 54.2852 84.1797 53.79 83.5762 53.4619C82.9727 53.1279 82.2256 52.9609 81.335 52.9609H78.0039V50.9043H81.4756C82.7764 50.9043 83.8926 51.165 84.8242 51.6865C85.7617 52.208 86.4824 52.958 86.9863 53.9365C87.4902 54.915 87.7422 56.084 87.7422 57.4434C87.7422 58.8027 87.4902 59.9746 86.9863 60.959C86.4824 61.9375 85.7559 62.6904 84.8066 63.2178C83.8633 63.7393 82.7266 64 81.3965 64ZM79.3223 50.9043V64H76.9492V50.9043H79.3223ZM93.4902 64.1934C92.5293 64.1934 91.6973 63.9824 90.9941 63.5605C90.291 63.1387 89.7461 62.5469 89.3594 61.7852C88.9785 61.0234 88.7881 60.1387 88.7881 59.1309C88.7881 58.1172 88.9785 57.2295 89.3594 56.4678C89.7461 55.7002 90.291 55.1055 90.9941 54.6836C91.6973 54.2617 92.5293 54.0508 93.4902 54.0508C94.4512 54.0508 95.2832 54.2617 95.9863 54.6836C96.6895 55.1055 97.2344 55.7002 97.6211 56.4678C98.0078 57.2295 98.2012 58.1172 98.2012 59.1309C98.2012 60.1387 98.0078 61.0234 97.6211 61.7852C97.2344 62.5469 96.6895 63.1387 95.9863 63.5605C95.2832 63.9824 94.4512 64.1934 93.4902 64.1934ZM93.4902 62.3301C94.0234 62.3301 94.4629 62.1895 94.8086 61.9082C95.1543 61.6211 95.4121 61.2344 95.582 60.748C95.7578 60.2617 95.8457 59.7227 95.8457 59.1309C95.8457 58.5273 95.7578 57.9824 95.582 57.4961C95.4121 57.0098 95.1543 56.626 94.8086 56.3447C94.4629 56.0576 94.0234 55.9141 93.4902 55.9141C92.9688 55.9141 92.5322 56.0576 92.1807 56.3447C91.8291 56.626 91.5654 57.0098 91.3896 57.4961C91.2197 57.9824 91.1348 58.5273 91.1348 59.1309C91.1348 59.7227 91.2197 60.2617 91.3896 60.748C91.5654 61.2344 91.8291 61.6211 92.1807 61.9082C92.5322 62.1895 92.9688 62.3301 93.4902 62.3301ZM101.242 64L98.4648 54.1738H100.82L102.552 61.082H102.64L104.406 54.1738H106.735L108.502 61.0557H108.59L110.295 54.1738H112.659L109.882 64H107.465L105.619 57.3643H105.496L103.65 64H101.242ZM115.92 58.252V64H113.608V54.1738H115.876V55.8525H115.99C116.213 55.3018 116.562 54.8652 117.036 54.543C117.517 54.2148 118.126 54.0508 118.864 54.0508C119.544 54.0508 120.136 54.1943 120.64 54.4814C121.144 54.7686 121.533 55.1904 121.809 55.7471C122.09 56.2979 122.23 56.9658 122.23 57.751V64H119.919V58.1113C119.919 57.4551 119.749 56.9424 119.409 56.5732C119.069 56.1982 118.601 56.0107 118.003 56.0107C117.599 56.0107 117.238 56.0986 116.922 56.2744C116.611 56.4502 116.365 56.7051 116.184 57.0391C116.008 57.3672 115.92 57.7715 115.92 58.252ZM126.256 50.9043V64H123.944V50.9043H126.256ZM132.25 64.1934C131.289 64.1934 130.457 63.9824 129.754 63.5605C129.051 63.1387 128.506 62.5469 128.119 61.7852C127.738 61.0234 127.548 60.1387 127.548 59.1309C127.548 58.1172 127.738 57.2295 128.119 56.4678C128.506 55.7002 129.051 55.1055 129.754 54.6836C130.457 54.2617 131.289 54.0508 132.25 54.0508C133.211 54.0508 134.043 54.2617 134.746 54.6836C135.449 55.1055 135.994 55.7002 136.381 56.4678C136.768 57.2295 136.961 58.1172 136.961 59.1309C136.961 60.1387 136.768 61.0234 136.381 61.7852C135.994 62.5469 135.449 63.1387 134.746 63.5605C134.043 63.9824 133.211 64.1934 132.25 64.1934ZM132.25 62.3301C132.783 62.3301 133.223 62.1895 133.568 61.9082C133.914 61.6211 134.172 61.2344 134.342 60.748C134.518 60.2617 134.605 59.7227 134.605 59.1309C134.605 58.5273 134.518 57.9824 134.342 57.4961C134.172 57.0098 133.914 56.626 133.568 56.3447C133.223 56.0576 132.783 55.9141 132.25 55.9141C131.729 55.9141 131.292 56.0576 130.94 56.3447C130.589 56.626 130.325 57.0098 130.149 57.4961C129.979 57.9824 129.895 58.5273 129.895 59.1309C129.895 59.7227 129.979 60.2617 130.149 60.748C130.325 61.2344 130.589 61.6211 130.94 61.9082C131.292 62.1895 131.729 62.3301 132.25 62.3301ZM141.065 64.2021C140.438 64.2021 139.876 64.0908 139.378 63.8682C138.88 63.6396 138.487 63.3057 138.2 62.8662C137.913 62.4268 137.77 61.8848 137.77 61.2402C137.77 60.6895 137.872 60.2324 138.077 59.8691C138.282 59.5059 138.561 59.2158 138.912 58.999C139.27 58.7822 139.671 58.6182 140.116 58.5068C140.562 58.3896 141.021 58.3076 141.496 58.2607C142.076 58.1963 142.545 58.1406 142.902 58.0938C143.26 58.0469 143.518 57.9707 143.676 57.8652C143.84 57.7598 143.922 57.5957 143.922 57.373V57.3291C143.922 56.8545 143.781 56.4854 143.5 56.2217C143.219 55.958 142.809 55.8262 142.27 55.8262C141.701 55.8262 141.25 55.9492 140.916 56.1953C140.588 56.4414 140.365 56.7314 140.248 57.0654L138.095 56.7578C138.265 56.1602 138.546 55.6621 138.938 55.2637C139.331 54.8594 139.809 54.5576 140.371 54.3584C140.939 54.1533 141.566 54.0508 142.252 54.0508C142.721 54.0508 143.189 54.1064 143.658 54.2178C144.127 54.3232 144.558 54.5049 144.95 54.7627C145.343 55.0205 145.656 55.3662 145.891 55.7998C146.125 56.2334 146.242 56.7754 146.242 57.4258V64H144.019V62.6465H143.948C143.808 62.916 143.608 63.1709 143.351 63.4111C143.099 63.6455 142.782 63.8359 142.401 63.9824C142.026 64.1289 141.581 64.2021 141.065 64.2021ZM141.654 62.4971C142.123 62.4971 142.527 62.4062 142.867 62.2246C143.207 62.0371 143.471 61.791 143.658 61.4863C143.846 61.1758 143.939 60.8389 143.939 60.4756V59.3242C143.863 59.3828 143.74 59.4385 143.57 59.4912C143.4 59.5381 143.207 59.582 142.99 59.623C142.773 59.6641 142.56 59.6992 142.349 59.7285C142.144 59.7578 141.965 59.7812 141.812 59.7988C141.467 59.8457 141.156 59.9248 140.881 60.0361C140.611 60.1416 140.397 60.2881 140.239 60.4756C140.081 60.6631 140.002 60.9062 140.002 61.2051C140.002 61.6328 140.157 61.9551 140.468 62.1719C140.778 62.3887 141.174 62.4971 141.654 62.4971ZM151.577 64.1758C150.81 64.1758 150.118 63.9795 149.503 63.5869C148.894 63.1885 148.413 62.6113 148.062 61.8555C147.71 61.0996 147.534 60.1826 147.534 59.1045C147.534 58.0088 147.713 57.0859 148.07 56.3359C148.434 55.5859 148.92 55.0176 149.529 54.6309C150.139 54.2441 150.821 54.0508 151.577 54.0508C152.157 54.0508 152.632 54.1475 153.001 54.3408C153.37 54.5342 153.663 54.7686 153.88 55.0439C154.103 55.3135 154.272 55.5654 154.39 55.7998H154.486V50.9043H156.789V64H154.53V62.4443H154.39C154.267 62.6846 154.094 62.9395 153.871 63.209C153.648 63.4727 153.353 63.7012 152.983 63.8945C152.614 64.082 152.146 64.1758 151.577 64.1758ZM152.219 62.2773C152.711 62.2773 153.127 62.1455 153.467 61.8818C153.812 61.6123 154.076 61.2402 154.258 60.7656C154.439 60.2852 154.53 59.7285 154.53 59.0957C154.53 58.457 154.439 57.9033 154.258 57.4346C154.082 56.96 153.821 56.5938 153.476 56.3359C153.136 56.0781 152.717 55.9492 152.219 55.9492C151.709 55.9492 151.281 56.084 150.936 56.3535C150.59 56.623 150.329 56.9951 150.153 57.4697C149.983 57.9443 149.898 58.4863 149.898 59.0957C149.898 59.7051 149.986 60.25 150.162 60.7305C150.338 61.2109 150.596 61.5889 150.936 61.8643C151.281 62.1396 151.709 62.2773 152.219 62.2773ZM167.195 54.1738V55.9668H161.562V54.1738H167.195ZM162.941 51.8359H165.253V61.0469C165.253 61.4336 165.338 61.7207 165.508 61.9082C165.678 62.0898 165.947 62.1807 166.316 62.1807C166.416 62.1807 166.527 62.1719 166.65 62.1543C166.773 62.1367 166.885 62.1162 166.984 62.0928L167.38 63.9033C167.134 63.9795 166.885 64.0352 166.633 64.0703C166.381 64.1113 166.129 64.1318 165.877 64.1318C164.963 64.1318 164.245 63.8916 163.724 63.4111C163.202 62.9248 162.941 62.2627 162.941 61.4248V51.8359ZM170.992 58.252V64H168.681V50.9043H170.939V55.8525H171.062C171.291 55.2959 171.646 54.8564 172.126 54.5342C172.606 54.2119 173.225 54.0508 173.98 54.0508C174.66 54.0508 175.252 54.1943 175.756 54.4814C176.266 54.7686 176.661 55.1875 176.942 55.7383C177.224 56.2891 177.364 56.96 177.364 57.751V64H175.044V58.1113C175.044 57.4434 174.874 56.9277 174.534 56.5645C174.194 56.1953 173.72 56.0107 173.11 56.0107C172.7 56.0107 172.334 56.0986 172.012 56.2744C171.695 56.4502 171.446 56.7051 171.265 57.0391C171.083 57.3672 170.992 57.7715 170.992 58.252ZM183.42 64.1934C182.436 64.1934 181.586 63.9883 180.871 63.5781C180.156 63.1621 179.605 62.5762 179.219 61.8203C178.838 61.0645 178.647 60.1738 178.647 59.1484C178.647 58.1348 178.838 57.2471 179.219 56.4854C179.6 55.7178 180.136 55.1201 180.827 54.6924C181.519 54.2646 182.333 54.0508 183.271 54.0508C183.874 54.0508 184.445 54.1475 184.984 54.3408C185.529 54.5342 186.01 54.833 186.426 55.2373C186.848 55.6416 187.179 56.1572 187.419 56.7842C187.659 57.4053 187.779 58.1465 187.779 59.0078V59.7285H179.729V58.1729H186.628L185.547 58.6299C185.547 58.0732 185.462 57.5898 185.292 57.1797C185.122 56.7637 184.87 56.4385 184.536 56.2041C184.202 55.9697 183.786 55.8525 183.288 55.8525C182.79 55.8525 182.365 55.9697 182.014 56.2041C181.662 56.4385 181.396 56.7549 181.214 57.1533C181.032 57.5459 180.941 57.9854 180.941 58.4717V59.5527C180.941 60.1504 181.044 60.6631 181.249 61.0908C181.46 61.5127 181.753 61.835 182.128 62.0576C182.509 62.2803 182.951 62.3916 183.455 62.3916C183.783 62.3916 184.082 62.3447 184.352 62.251C184.627 62.1572 184.861 62.0166 185.055 61.8291C185.254 61.6357 185.406 61.3984 185.512 61.1172L187.674 61.3721C187.533 61.9404 187.272 62.4385 186.892 62.8662C186.517 63.2881 186.033 63.6162 185.441 63.8506C184.855 64.0791 184.182 64.1934 183.42 64.1934ZM79.6826 89.2021C79.0557 89.2021 78.4932 89.0908 77.9951 88.8682C77.4971 88.6396 77.1045 88.3057 76.8174 87.8662C76.5303 87.4268 76.3867 86.8848 76.3867 86.2402C76.3867 85.6895 76.4893 85.2324 76.6943 84.8691C76.8994 84.5059 77.1777 84.2158 77.5293 83.999C77.8867 83.7822 78.2881 83.6182 78.7334 83.5068C79.1787 83.3896 79.6387 83.3076 80.1133 83.2607C80.6934 83.1963 81.1621 83.1406 81.5195 83.0938C81.877 83.0469 82.1348 82.9707 82.293 82.8652C82.457 82.7598 82.5391 82.5957 82.5391 82.373V82.3291C82.5391 81.8545 82.3984 81.4854 82.1172 81.2217C81.8359 80.958 81.4258 80.8262 80.8867 80.8262C80.3184 80.8262 79.8672 80.9492 79.5332 81.1953C79.2051 81.4414 78.9824 81.7314 78.8652 82.0654L76.7119 81.7578C76.8818 81.1602 77.1631 80.6621 77.5557 80.2637C77.9482 79.8594 78.4258 79.5576 78.9883 79.3584C79.5566 79.1533 80.1836 79.0508 80.8691 79.0508C81.3379 79.0508 81.8066 79.1064 82.2754 79.2178C82.7441 79.3232 83.1748 79.5049 83.5674 79.7627C83.96 80.0205 84.2734 80.3662 84.5078 80.7998C84.7422 81.2334 84.8594 81.7754 84.8594 82.4258V89H82.6357V87.6465H82.5654C82.4248 87.916 82.2256 88.1709 81.9678 88.4111C81.7158 88.6455 81.3994 88.8359 81.0186 88.9824C80.6436 89.1289 80.1982 89.2021 79.6826 89.2021ZM80.2715 87.4971C80.7402 87.4971 81.1445 87.4062 81.4844 87.2246C81.8242 87.0371 82.0879 86.791 82.2754 86.4863C82.4629 86.1758 82.5566 85.8389 82.5566 85.4756V84.3242C82.4805 84.3828 82.3574 84.4385 82.1875 84.4912C82.0176 84.5381 81.8242 84.582 81.6074 84.623C81.3906 84.6641 81.1768 84.6992 80.9658 84.7285C80.7607 84.7578 80.582 84.7812 80.4297 84.7988C80.084 84.8457 79.7734 84.9248 79.498 85.0361C79.2285 85.1416 79.0146 85.2881 78.8564 85.4756C78.6982 85.6631 78.6191 85.9062 78.6191 86.2051C78.6191 86.6328 78.7744 86.9551 79.085 87.1719C79.3955 87.3887 79.791 87.4971 80.2715 87.4971ZM86.5732 92.6738V79.1738H88.8408V80.7998H88.9814C89.0986 80.5654 89.2656 80.3135 89.4824 80.0439C89.6992 79.7686 89.9922 79.5342 90.3613 79.3408C90.7363 79.1475 91.2139 79.0508 91.7939 79.0508C92.5498 79.0508 93.2324 79.2441 93.8418 79.6309C94.4512 80.0176 94.9346 80.5859 95.292 81.3359C95.6553 82.0859 95.8369 83.0088 95.8369 84.1045C95.8369 85.1826 95.6611 86.0996 95.3096 86.8555C94.958 87.6113 94.4746 88.1885 93.8594 88.5869C93.25 88.9795 92.5586 89.1758 91.7852 89.1758C91.2285 89.1758 90.7627 89.082 90.3877 88.8945C90.0186 88.7012 89.7197 88.4727 89.4912 88.209C89.2686 87.9395 89.0986 87.6846 88.9814 87.4443H88.8848V92.6738H86.5732ZM91.1523 87.2773C91.6621 87.2773 92.0869 87.1396 92.4268 86.8643C92.7725 86.5889 93.0332 86.2109 93.209 85.7305C93.3848 85.25 93.4727 84.7051 93.4727 84.0957C93.4727 83.4863 93.3848 82.9443 93.209 82.4697C93.0332 81.9951 92.7754 81.623 92.4355 81.3535C92.0957 81.084 91.668 80.9492 91.1523 80.9492C90.6543 80.9492 90.2324 81.0781 89.8867 81.3359C89.5469 81.5938 89.2861 81.96 89.1045 82.4346C88.9287 82.9033 88.8408 83.457 88.8408 84.0957C88.8408 84.7285 88.9287 85.2852 89.1045 85.7656C89.2861 86.2402 89.5498 86.6123 89.8955 86.8818C90.2412 87.1455 90.6602 87.2773 91.1523 87.2773ZM97.1201 92.6738V79.1738H99.3877V80.7998H99.5283C99.6455 80.5654 99.8125 80.3135 100.029 80.0439C100.246 79.7686 100.539 79.5342 100.908 79.3408C101.283 79.1475 101.761 79.0508 102.341 79.0508C103.097 79.0508 103.779 79.2441 104.389 79.6309C104.998 80.0176 105.481 80.5859 105.839 81.3359C106.202 82.0859 106.384 83.0088 106.384 84.1045C106.384 85.1826 106.208 86.0996 105.856 86.8555C105.505 87.6113 105.021 88.1885 104.406 88.5869C103.797 88.9795 103.105 89.1758 102.332 89.1758C101.775 89.1758 101.31 89.082 100.935 88.8945C100.565 88.7012 100.267 88.4727 100.038 88.209C99.8154 87.9395 99.6455 87.6846 99.5283 87.4443H99.4316V92.6738H97.1201ZM101.699 87.2773C102.209 87.2773 102.634 87.1396 102.974 86.8643C103.319 86.5889 103.58 86.2109 103.756 85.7305C103.932 85.25 104.02 84.7051 104.02 84.0957C104.02 83.4863 103.932 82.9443 103.756 82.4697C103.58 81.9951 103.322 81.623 102.982 81.3535C102.643 81.084 102.215 80.9492 101.699 80.9492C101.201 80.9492 100.779 81.0781 100.434 81.3359C100.094 81.5938 99.833 81.96 99.6514 82.4346C99.4756 82.9033 99.3877 83.457 99.3877 84.0957C99.3877 84.7285 99.4756 85.2852 99.6514 85.7656C99.833 86.2402 100.097 86.6123 100.442 86.8818C100.788 87.1455 101.207 87.2773 101.699 87.2773ZM113.775 83.252V89H111.464V79.1738H113.731V80.8525H113.846C114.068 80.3018 114.417 79.8652 114.892 79.543C115.372 79.2148 115.981 79.0508 116.72 79.0508C117.399 79.0508 117.991 79.1943 118.495 79.4814C118.999 79.7686 119.389 80.1904 119.664 80.7471C119.945 81.2979 120.086 81.9658 120.086 82.751V89H117.774V83.1113C117.774 82.4551 117.604 81.9424 117.265 81.5732C116.925 81.1982 116.456 81.0107 115.858 81.0107C115.454 81.0107 115.094 81.0986 114.777 81.2744C114.467 81.4502 114.221 81.7051 114.039 82.0391C113.863 82.3672 113.775 82.7715 113.775 83.252ZM126.08 89.1934C125.119 89.1934 124.287 88.9824 123.584 88.5605C122.881 88.1387 122.336 87.5469 121.949 86.7852C121.568 86.0234 121.378 85.1387 121.378 84.1309C121.378 83.1172 121.568 82.2295 121.949 81.4678C122.336 80.7002 122.881 80.1055 123.584 79.6836C124.287 79.2617 125.119 79.0508 126.08 79.0508C127.041 79.0508 127.873 79.2617 128.576 79.6836C129.279 80.1055 129.824 80.7002 130.211 81.4678C130.598 82.2295 130.791 83.1172 130.791 84.1309C130.791 85.1387 130.598 86.0234 130.211 86.7852C129.824 87.5469 129.279 88.1387 128.576 88.5605C127.873 88.9824 127.041 89.1934 126.08 89.1934ZM126.08 87.3301C126.613 87.3301 127.053 87.1895 127.398 86.9082C127.744 86.6211 128.002 86.2344 128.172 85.748C128.348 85.2617 128.436 84.7227 128.436 84.1309C128.436 83.5273 128.348 82.9824 128.172 82.4961C128.002 82.0098 127.744 81.626 127.398 81.3447C127.053 81.0576 126.613 80.9141 126.08 80.9141C125.559 80.9141 125.122 81.0576 124.771 81.3447C124.419 81.626 124.155 82.0098 123.979 82.4961C123.81 82.9824 123.725 83.5273 123.725 84.1309C123.725 84.7227 123.81 85.2617 123.979 85.748C124.155 86.2344 124.419 86.6211 124.771 86.9082C125.122 87.1895 125.559 87.3301 126.08 87.3301ZM133.832 89L131.055 79.1738H133.41L135.142 86.082H135.229L136.996 79.1738H139.325L141.092 86.0557H141.18L142.885 79.1738H145.249L142.472 89H140.055L138.209 82.3643H138.086L136.24 89H133.832ZM146.884 84.834L146.717 75.9043H149.23L149.063 84.834H146.884ZM147.974 89.1494C147.558 89.1494 147.212 89.0205 146.937 88.7627C146.667 88.499 146.532 88.165 146.532 87.7607C146.532 87.3506 146.667 87.0166 146.937 86.7588C147.212 86.4951 147.558 86.3633 147.974 86.3633C148.396 86.3633 148.741 86.4951 149.011 86.7588C149.28 87.0166 149.415 87.3506 149.415 87.7607C149.415 88.165 149.28 88.499 149.011 88.7627C148.741 89.0205 148.396 89.1494 147.974 89.1494Z" fill="#0E0E0E"/>
<mask id="mask1_2436_5770" style="mask-type:alpha" maskUnits="userSpaceOnUse" x="315" y="140" width="20" height="21">
<g clip-path="url(#clip3_2436_5770)">
<g clip-path="url(#clip4_2436_5770)">
<path d="M235 140.695C254.425 140.502 269.706 140.431 285.006 140.407L335.001 190.398V170.91C335.019 193.569 335.031 212.705 334.696 240.4H235V140.695ZM335.001 160.403V170.91C334.998 167.354 334.996 163.712 334.994 159.937C334.998 160.092 335.001 160.247 335.001 160.403ZM334.993 159.886C334.719 149.079 325.874 140.403 315.001 140.403H289.147C303.068 140.388 317.315 140.404 335 140.4C334.991 147.372 334.99 153.802 334.993 159.886ZM289.147 140.403C287.765 140.404 286.385 140.404 285.006 140.407L285.003 140.403H289.147Z" fill="black"/>
</g>
</g>
</mask>
<g mask="url(#mask1_2436_5770)">
<rect x="315" y="140.4" width="20" height="20" fill="#F9FAFB"/>
</g>
<defs>
<clipPath id="clip0_2436_5770">
<rect width="20" height="20" fill="white"/>
</clipPath>
<clipPath id="clip1_2436_5770">
<rect width="20" height="20" fill="white"/>
</clipPath>
<clipPath id="clip2_2436_5770">
<rect width="37" height="37" fill="white" transform="translate(246 50.7)"/>
</clipPath>
<clipPath id="clip3_2436_5770">
<rect width="20" height="20" fill="white" transform="translate(315 140.4)"/>
</clipPath>
<clipPath id="clip4_2436_5770">
<rect width="20" height="20" fill="white" transform="translate(315 140.4)"/>
</clipPath>
</defs>
</svg>
