<svg width="24" height="24" viewBox="0 0 24 24" fill="none" xmlns="http://www.w3.org/2000/svg">
<path d="M8.75405 5.82031C8.75403 5.53605 8.64179 5.26329 8.44253 5.06055L5.19644 1.81347L5.11636 1.74219C4.92165 1.58581 4.67779 1.5 4.42593 1.5C4.13836 1.5001 3.86208 1.6125 3.6564 1.81347L2.91421 2.57324L2.90444 2.58301C2.13289 3.3444 1.64698 4.34831 1.52847 5.42578C1.41022 6.50112 1.66499 7.58438 2.25015 8.49414C5.74393 13.6407 10.1886 18.0723 15.3448 21.5518C16.2532 22.134 17.3336 22.3875 18.4064 22.2696C19.4838 22.1511 20.4878 21.6651 21.2491 20.8936L21.2589 20.8838L22.0196 20.1387C22.2195 19.9331 22.3321 19.6588 22.3321 19.3721C22.3321 19.0842 22.2198 18.8073 22.0187 18.6016L18.755 15.3731L18.6759 15.3018C18.4839 15.1469 18.2438 15.0616 17.9952 15.0616C17.7109 15.0616 17.4374 15.1737 17.2345 15.3731L17.2335 15.3741C16.7476 15.8492 16.0948 16.1152 15.4152 16.1153C14.7354 16.1153 14.0819 15.8493 13.5958 15.3741L8.44741 10.2246C8.20722 9.98667 8.01545 9.70351 7.88491 9.3916C7.75354 9.0777 7.68569 8.74068 7.68569 8.40039C7.6857 8.06011 7.75355 7.72307 7.88491 7.40918C8.01474 7.099 8.20417 6.81717 8.44253 6.58008C8.64179 6.37729 8.75405 6.10459 8.75405 5.82031ZM10.254 5.82031C10.254 6.49789 9.98773 7.14855 9.51284 7.63183L9.50405 7.64062C9.40343 7.73983 9.32328 7.85791 9.2687 7.98828C9.21409 8.11877 9.1857 8.25895 9.18569 8.40039C9.18569 8.54184 9.21409 8.68202 9.2687 8.8125C9.32326 8.94286 9.40342 9.06092 9.50405 9.16015L14.6446 14.3018L14.7257 14.3721C14.9204 14.5284 15.1633 14.6153 15.4152 14.6153C15.7026 14.6152 15.979 14.5028 16.1847 14.3018C16.6679 13.8276 17.3181 13.5616 17.9952 13.5616C18.588 13.5616 19.1598 13.7658 19.6173 14.1348L19.8058 14.3028L19.8077 14.3047L23.0821 17.5449L23.0909 17.5528C23.5661 18.0389 23.8321 18.6925 23.8321 19.3721C23.8321 20.0518 23.5661 20.7044 23.0909 21.1905C23.0871 21.1944 23.0832 21.1983 23.0792 21.2022L22.3077 21.9571C21.3055 22.9683 19.986 23.6051 18.5704 23.7608C17.1505 23.9169 15.72 23.5792 14.5196 22.8047C14.5154 22.8019 14.5112 22.7988 14.507 22.7959C9.18886 19.2074 4.60534 14.636 1.00308 9.32715C0.999822 9.32234 0.996462 9.31738 0.993312 9.3125C0.218903 8.11206 -0.118911 6.6817 0.037259 5.26172C0.193443 3.84181 0.83404 2.51902 1.85073 1.51562L2.59585 0.75293L2.60757 0.741211C3.09354 0.266096 3.74631 9.9e-05 4.42593 0C5.02071 0 5.59498 0.203979 6.05483 0.573242L6.24526 0.741211L9.51284 4.00879C9.98773 4.49205 10.254 5.14273 10.254 5.82031Z" fill="#B9FB6A"/>
</svg>
