<svg width="24" height="24" viewBox="0 0 24 24" fill="none" xmlns="http://www.w3.org/2000/svg">
<path d="M22.3936 4.71387C22.3933 4.18147 21.961 3.75 21.4287 3.75H2.57129C2.03907 3.75023 1.60765 4.18164 1.60742 4.71387V19.2861C1.60766 19.8184 2.03907 20.2498 2.57129 20.25H21.4287C21.961 20.25 22.3933 19.8185 22.3936 19.2861V4.71387ZM23.8936 19.2861C23.8933 20.6469 22.7895 21.75 21.4287 21.75H2.57129C1.21064 21.7498 0.107656 20.6468 0.107422 19.2861V4.71387C0.10765 3.35321 1.21064 2.25023 2.57129 2.25H21.4287C22.7895 2.25 23.8933 3.3531 23.8936 4.71387V19.2861Z" fill="#B9FB6A"/>
<path d="M22.6559 4.57225C22.971 4.30339 23.4446 4.34113 23.7135 4.65623C23.9819 4.9713 23.9444 5.44411 23.6295 5.71287L13.5836 14.2842L13.5768 14.29C13.134 14.6589 12.5759 14.8613 11.9996 14.8613C11.4234 14.8613 10.8652 14.6588 10.4225 14.29L10.4156 14.2842L0.370691 5.71287C0.0556462 5.44406 0.0180043 4.97133 0.286707 4.65623C0.555517 4.34119 1.02824 4.30355 1.34335 4.57225L11.3824 13.1377L11.5201 13.2334C11.6652 13.3166 11.8304 13.3613 11.9996 13.3613C12.2251 13.3613 12.4436 13.282 12.6168 13.1377L22.6559 4.57225Z" fill="#B9FB6A"/>
</svg>
