<svg width="24" height="24" viewBox="0 0 24 24" fill="none" xmlns="http://www.w3.org/2000/svg">
<path d="M19.1145 8.5703C19.1144 6.68356 18.3643 4.87395 17.0301 3.53982C15.6959 2.20577 13.8863 1.45622 11.9996 1.45622C10.1128 1.45629 8.30329 2.20569 6.96914 3.53982C5.635 4.87396 4.88559 6.68357 4.88555 8.5703C4.88555 9.49694 5.31617 10.839 6.03555 12.3969C6.74431 13.9317 7.69483 15.5963 8.65273 17.1406C9.60945 18.6829 10.5673 20.0945 11.2863 21.1211C11.5647 21.5185 11.8073 21.8577 11.9996 22.1242C12.1919 21.8577 12.4351 21.5187 12.7137 21.1211C13.4327 20.0945 14.3906 18.6829 15.3473 17.1406C16.3051 15.5964 17.255 13.9316 17.9637 12.3969C18.6831 10.839 19.1145 9.49694 19.1145 8.5703ZM20.3145 8.5703C20.3145 9.77798 19.7806 11.3255 19.0535 12.9C18.3159 14.4973 17.3374 16.2086 16.3668 17.7734C15.395 19.3402 14.4239 20.7708 13.6965 21.8093C13.3327 22.3289 13.0295 22.7512 12.8168 23.0437C12.7104 23.19 12.6265 23.3044 12.5691 23.382C12.5406 23.4207 12.5185 23.4502 12.5035 23.4703C12.4962 23.4802 12.4903 23.4877 12.4863 23.4929C12.4844 23.4956 12.4827 23.4978 12.4816 23.4992L12.4809 23.5008C12.3675 23.6521 12.1887 23.7421 11.9996 23.7421C11.8107 23.7421 11.6332 23.6527 11.5199 23.5016L11.9996 23.1421L11.5191 23.5016V23.5008L11.5176 23.4992C11.5166 23.4978 11.5155 23.4954 11.5137 23.4929C11.5098 23.4877 11.5039 23.4803 11.4965 23.4703C11.4815 23.4502 11.4594 23.4206 11.4309 23.382C11.3735 23.3044 11.2896 23.19 11.1832 23.0437C10.9705 22.7512 10.6667 22.3289 10.3027 21.8093C9.57537 20.7709 8.60497 19.3401 7.6332 17.7734C6.66266 16.2087 5.68413 14.4973 4.94648 12.9C4.21943 11.3255 3.68555 9.77798 3.68555 8.5703C3.68559 6.3653 4.56151 4.25056 6.12071 2.69138C7.67988 1.13221 9.79457 0.25629 11.9996 0.256226C14.2047 0.256226 16.3201 1.13215 17.8793 2.69138C19.4384 4.25055 20.3144 6.36539 20.3145 8.5703Z" fill="#B9FB6A"/>
<path d="M13.9721 8.57114C13.9719 7.48247 13.0889 6.60002 12.0002 6.60002C10.9117 6.60021 10.0293 7.48259 10.0291 8.57114C10.0291 9.65978 10.9116 10.5428 12.0002 10.543C13.089 10.543 13.9721 9.65994 13.9721 8.57114ZM15.1721 8.57114C15.1721 10.3227 13.7517 11.743 12.0002 11.743C10.2489 11.7428 8.8291 10.3225 8.8291 8.57114C8.82934 6.81984 10.2489 5.40021 12.0002 5.40002C13.7517 5.40002 15.1719 6.81973 15.1721 8.57114Z" fill="#B9FB6A"/>
</svg>
